<svg xmlns="http://www.w3.org/2000/svg" width="34" height="42" version="1.0" viewBox="0 0 25.5 31.5"><defs><clipPath id="b"><path d="M0 17h25.008v13.953H0Zm0 0"/></clipPath><clipPath id="e"><path d="M.273.164h24.73V13.27H.274Zm0 0"/></clipPath><clipPath id="f"><path d="M12.664 13.27.324.164h24.68Zm0 0"/></clipPath><clipPath id="d"><path d="M0 0h26v14H0z"/></clipPath><clipPath id="g"><path d="M1 15h16v15.953H1Zm0 0"/></clipPath><clipPath id="j"><path d="M.883 3H12v12.656H.883Zm0 0"/></clipPath><clipPath id="k"><path d="M4.25.785 15.16 12.38l-3.316 3.117L.938 3.906Zm0 0"/></clipPath><clipPath id="l"><path d="m9.7 6.574 2.132 8.91L.938 3.906Zm0 0"/></clipPath><clipPath id="i"><path d="M0 0h16v16H0z"/></clipPath><clipPath id="m"><path d="M.215 2.676h24.73v13.11H.215Zm0 0"/></clipPath><clipPath id="n"><path d="m12.555 2.676 12.34 13.11H.215Zm0 0"/></clipPath><clipPath id="o"><path d="M0 2h13v19H0Zm0 0"/></clipPath><clipPath id="p"><path d="m6.246.059 12.617 5.023-6.258 15.719-12.617-5.024Zm0 0"/></clipPath><clipPath id="q"><path d="m12.555 2.57.062 18.203L0 15.75Zm0 0"/></clipPath><clipPath id="t"><path d="M4 .41h11.305V13H4Zm0 0"/></clipPath><clipPath id="u"><path d="M11.973 15.164 1.03 3.602 4.336.472l10.945 11.56Zm0 0"/></clipPath><clipPath id="v"><path d="M6.508 9.39 4.348.485 15.28 12.031Zm0 0"/></clipPath><clipPath id="s"><path d="M0 0h16v16H0z"/></clipPath><clipPath id="w"><path d="M9.715 2.668h2.95v17.969h-2.95Zm0 0"/></clipPath><clipPath id="x"><path d="m9.715 11.656 2.95-8.98v17.96Zm0 0"/></clipPath><mask id="c"><g filter="url(#a)"><path fill-opacity=".94" d="M-2.55-3.15h30.6v37.8h-30.6z"/></g></mask><mask id="h"><g filter="url(#a)"><path fill-opacity=".3" d="M-2.55-3.15h30.6v37.8h-30.6z"/></g></mask><mask id="r"><g filter="url(#a)"><path fill-opacity=".51" d="M-2.55-3.15h30.6v37.8h-30.6z"/></g></mask><filter id="a" width="100%" height="100%" x="0%" y="0%"><feColorMatrix color-interpolation-filters="sRGB" values="0 0 0 0 1 0 0 0 0 1 0 0 0 0 1 0 0 0 1 0"/></filter></defs><g clip-path="url(#b)" mask="url(#c)"><g clip-path="url(#d)" transform="translate(0 17)"><g clip-path="url(#e)"><g clip-path="url(#f)"><path fill="#fff" d="M25.004 13.27H.324V.164h24.68Zm0 0"/></g></g></g></g><g clip-path="url(#g)" mask="url(#h)"><g clip-path="url(#i)" transform="translate(1 15)"><g clip-path="url(#j)"><g clip-path="url(#k)"><g clip-path="url(#l)"><path fill="#ffdf59" d="m4.25.785 10.898 11.578-3.316 3.121L.938 3.906Zm0 0"/></g></g></g></g></g><g clip-path="url(#m)"><g clip-path="url(#n)"><path fill="#fff" d="M.215 2.676h24.68v13.11H.215Zm0 0"/></g></g><g clip-path="url(#o)"><g clip-path="url(#p)"><g clip-path="url(#q)"><path fill="#ffdf59" d="m6.246.059 12.617 5.023-6.238 15.672L.008 15.73Zm0 0"/></g></g></g><g mask="url(#r)"><g clip-path="url(#s)" transform="translate(8 2)"><g clip-path="url(#t)"><g clip-path="url(#u)"><g clip-path="url(#v)"><path fill="#ffdf59" d="M11.973 15.164 1.043 3.617 4.352.484l10.93 11.547Zm0 0"/></g></g></g></g></g><g clip-path="url(#w)"><g clip-path="url(#x)"><path fill="#cdb561" d="M9.715 20.637V2.68h2.95v17.957Zm0 0"/></g></g></svg>